<?xml version="1.0" encoding="UTF-8" standalone="no"?>
<!DOCTYPE svg PUBLIC "-//W3C//DTD SVG 1.1//EN"
 "http://www.w3.org/Graphics/SVG/1.1/DTD/svg11.dtd">
<!-- Generated by graphviz version 2.42.4 (0)
 -->
<!-- Title: G Pages: 1 -->
<svg width="573pt" height="605pt"
 viewBox="0.00 0.00 572.80 604.80" xmlns="http://www.w3.org/2000/svg" xmlns:xlink="http://www.w3.org/1999/xlink">
<g id="graph0" class="graph" transform="scale(1 1) rotate(0) translate(14.4 590.4)">
<title>G</title>
<polygon fill="white" stroke="transparent" points="-14.4,14.4 -14.4,-590.4 558.4,-590.4 558.4,14.4 -14.4,14.4"/>
<!-- internet -->
<g id="node1" class="node">
<title>internet</title>
<path fill="white" stroke="#1f3a93" stroke-width="1.2" d="M283.5,-576C283.5,-576 170.5,-576 170.5,-576 164.5,-576 158.5,-570 158.5,-564 158.5,-564 158.5,-552 158.5,-552 158.5,-546 164.5,-540 170.5,-540 170.5,-540 283.5,-540 283.5,-540 289.5,-540 295.5,-546 295.5,-552 295.5,-552 295.5,-564 295.5,-564 295.5,-570 289.5,-576 283.5,-576"/>
<text text-anchor="middle" x="227" y="-555.5" font-family="DejaVu Sans" font-size="10.00" fill="#1a1d24">Internet / réseau CNPM</text>
</g>
<!-- waf -->
<g id="node2" class="node">
<title>waf</title>
<path fill="white" stroke="#e30613" stroke-width="1.2" d="M276.5,-486C276.5,-486 177.5,-486 177.5,-486 171.5,-486 165.5,-480 165.5,-474 165.5,-474 165.5,-462 165.5,-462 165.5,-456 171.5,-450 177.5,-450 177.5,-450 276.5,-450 276.5,-450 282.5,-450 288.5,-456 288.5,-462 288.5,-462 288.5,-474 288.5,-474 288.5,-480 282.5,-486 276.5,-486"/>
<text text-anchor="middle" x="227" y="-465.5" font-family="DejaVu Sans" font-size="10.00" fill="#1a1d24">WAF / reverse proxy</text>
</g>
<!-- internet&#45;&gt;waf -->
<g id="edge1" class="edge">
<title>internet&#45;&gt;waf</title>
<path fill="none" stroke="#1f3a93" d="M227,-539.79C227,-539.79 227,-493.19 227,-493.19"/>
<polygon fill="#1f3a93" stroke="#1f3a93" points="229.45,-493.19 227,-486.19 224.55,-493.19 229.45,-493.19"/>
</g>
<!-- web -->
<g id="node3" class="node">
<title>web</title>
<path fill="white" stroke="#1f3a93" stroke-width="1.2" d="M193,-396C193,-396 137,-396 137,-396 131,-396 125,-390 125,-384 125,-384 125,-372 125,-372 125,-366 131,-360 137,-360 137,-360 193,-360 193,-360 199,-360 205,-366 205,-372 205,-372 205,-384 205,-384 205,-390 199,-396 193,-396"/>
<text text-anchor="middle" x="165" y="-381" font-family="DejaVu Sans" font-size="10.00" fill="#1a1d24">Web/PWA</text>
<text text-anchor="middle" x="165" y="-370" font-family="DejaVu Sans" font-size="10.00" fill="#1a1d24">2+ réplicas</text>
</g>
<!-- waf&#45;&gt;web -->
<g id="edge2" class="edge">
<title>waf&#45;&gt;web</title>
<path fill="none" stroke="#1f3a93" d="M185.25,-449.79C185.25,-449.79 185.25,-403.19 185.25,-403.19"/>
<polygon fill="#1f3a93" stroke="#1f3a93" points="187.7,-403.19 185.25,-396.19 182.8,-403.19 187.7,-403.19"/>
</g>
<!-- api -->
<g id="node4" class="node">
<title>api</title>
<path fill="white" stroke="#1f3a93" stroke-width="1.2" d="M321,-396C321,-396 257,-396 257,-396 251,-396 245,-390 245,-384 245,-384 245,-372 245,-372 245,-366 251,-360 257,-360 257,-360 321,-360 321,-360 327,-360 333,-366 333,-372 333,-372 333,-384 333,-384 333,-390 327,-396 321,-396"/>
<text text-anchor="middle" x="289" y="-381" font-family="DejaVu Sans" font-size="10.00" fill="#1a1d24">API / workers</text>
<text text-anchor="middle" x="289" y="-370" font-family="DejaVu Sans" font-size="10.00" fill="#1a1d24">2+ réplicas</text>
</g>
<!-- waf&#45;&gt;api -->
<g id="edge3" class="edge">
<title>waf&#45;&gt;api</title>
<path fill="none" stroke="#1f3a93" d="M266.75,-449.79C266.75,-449.79 266.75,-403.19 266.75,-403.19"/>
<polygon fill="#1f3a93" stroke="#1f3a93" points="269.2,-403.19 266.75,-396.19 264.3,-403.19 269.2,-403.19"/>
</g>
<!-- pgb -->
<g id="node5" class="node">
<title>pgb</title>
<path fill="white" stroke="#1f3a93" stroke-width="1.2" d="M64,-306C64,-306 12,-306 12,-306 6,-306 0,-300 0,-294 0,-294 0,-282 0,-282 0,-276 6,-270 12,-270 12,-270 64,-270 64,-270 70,-270 76,-276 76,-282 76,-282 76,-294 76,-294 76,-300 70,-306 64,-306"/>
<text text-anchor="middle" x="38" y="-285.5" font-family="DejaVu Sans" font-size="10.00" fill="#1a1d24">PgBouncer</text>
</g>
<!-- api&#45;&gt;pgb -->
<g id="edge4" class="edge">
<title>api&#45;&gt;pgb</title>
<path fill="none" stroke="#1f3a93" d="M274.67,-359.96C274.67,-347.44 274.67,-333 274.67,-333 274.67,-333 38,-333 38,-333 38,-333 38,-313.04 38,-313.04"/>
<polygon fill="#1f3a93" stroke="#1f3a93" points="40.45,-313.04 38,-306.04 35.55,-313.04 40.45,-313.04"/>
</g>
<!-- mq -->
<g id="node8" class="node">
<title>mq</title>
<path fill="white" stroke="#1f3a93" stroke-width="1.2" d="M194,-306C194,-306 128,-306 128,-306 122,-306 116,-300 116,-294 116,-294 116,-282 116,-282 116,-276 122,-270 128,-270 128,-270 194,-270 194,-270 200,-270 206,-276 206,-282 206,-282 206,-294 206,-294 206,-300 200,-306 194,-306"/>
<text text-anchor="middle" x="161" y="-285.5" font-family="DejaVu Sans" font-size="10.00" fill="#1a1d24">RabbitMQ HA</text>
</g>
<!-- api&#45;&gt;mq -->
<g id="edge7" class="edge">
<title>api&#45;&gt;mq</title>
<path fill="none" stroke="#1f3a93" d="M244.9,-378C234.06,-378 225.5,-378 225.5,-378 225.5,-378 225.5,-288 225.5,-288 225.5,-288 213.15,-288 213.15,-288"/>
<polygon fill="#1f3a93" stroke="#1f3a93" points="213.15,-285.55 206.15,-288 213.15,-290.45 213.15,-285.55"/>
</g>
<!-- key -->
<g id="node9" class="node">
<title>key</title>
<path fill="white" stroke="#1f3a93" stroke-width="1.2" d="M320,-306C320,-306 258,-306 258,-306 252,-306 246,-300 246,-294 246,-294 246,-282 246,-282 246,-276 252,-270 258,-270 258,-270 320,-270 320,-270 326,-270 332,-276 332,-282 332,-282 332,-294 332,-294 332,-300 326,-306 320,-306"/>
<text text-anchor="middle" x="289" y="-285.5" font-family="DejaVu Sans" font-size="10.00" fill="#1a1d24">Keycloak HA</text>
</g>
<!-- api&#45;&gt;key -->
<g id="edge8" class="edge">
<title>api&#45;&gt;key</title>
<path fill="none" stroke="#1f3a93" d="M303.33,-359.79C303.33,-359.79 303.33,-313.19 303.33,-313.19"/>
<polygon fill="#1f3a93" stroke="#1f3a93" points="305.78,-313.19 303.33,-306.19 300.88,-313.19 305.78,-313.19"/>
</g>
<!-- s3 -->
<g id="node10" class="node">
<title>s3</title>
<polygon fill="white" stroke="#1f3a93" stroke-width="1.2" points="416.5,-216 413.5,-220 392.5,-220 389.5,-216 319.5,-216 319.5,-180 416.5,-180 416.5,-216"/>
<text text-anchor="middle" x="368" y="-195.5" font-family="DejaVu Sans" font-size="10.00" fill="#1a1d24">Stockage objet</text>
</g>
<!-- api&#45;&gt;s3 -->
<g id="edge9" class="edge">
<title>api&#45;&gt;s3</title>
<path fill="none" stroke="#1f3a93" d="M333.13,-372C354.14,-372 374.75,-372 374.75,-372 374.75,-372 374.75,-223.29 374.75,-223.29"/>
<polygon fill="#1f3a93" stroke="#1f3a93" points="377.2,-223.29 374.75,-216.29 372.3,-223.29 377.2,-223.29"/>
</g>
<!-- obs -->
<g id="node11" class="node">
<title>obs</title>
<path fill="white" stroke="#1f3a93" stroke-width="1.2" d="M532,-306C532,-306 466,-306 466,-306 460,-306 454,-300 454,-294 454,-294 454,-282 454,-282 454,-276 460,-270 466,-270 466,-270 532,-270 532,-270 538,-270 544,-276 544,-282 544,-282 544,-294 544,-294 544,-300 538,-306 532,-306"/>
<text text-anchor="middle" x="499" y="-285.5" font-family="DejaVu Sans" font-size="10.00" fill="#1a1d24">Observabilité</text>
</g>
<!-- api&#45;&gt;obs -->
<g id="edge10" class="edge">
<title>api&#45;&gt;obs</title>
<path fill="none" stroke="#1f3a93" d="M333.02,-384C394.6,-384 499,-384 499,-384 499,-384 499,-313.06 499,-313.06"/>
<polygon fill="#1f3a93" stroke="#1f3a93" points="501.45,-313.06 499,-306.06 496.55,-313.06 501.45,-313.06"/>
</g>
<!-- pgp -->
<g id="node6" class="node">
<title>pgp</title>
<path fill="white" stroke="#1f3a93" stroke-width="1.2" d="M196,-212.73C196,-214.53 168.21,-216 134,-216 99.79,-216 72,-214.53 72,-212.73 72,-212.73 72,-183.27 72,-183.27 72,-181.47 99.79,-180 134,-180 168.21,-180 196,-181.47 196,-183.27 196,-183.27 196,-212.73 196,-212.73"/>
<path fill="none" stroke="#1f3a93" stroke-width="1.2" d="M196,-212.73C196,-210.92 168.21,-209.45 134,-209.45 99.79,-209.45 72,-210.92 72,-212.73"/>
<text text-anchor="middle" x="134" y="-195.5" font-family="DejaVu Sans" font-size="10.00" fill="#1a1d24">PostgreSQL primaire</text>
</g>
<!-- pgb&#45;&gt;pgp -->
<g id="edge5" class="edge">
<title>pgb&#45;&gt;pgp</title>
<path fill="none" stroke="#1f3a93" d="M76.04,-288C86.97,-288 96,-288 96,-288 96,-288 96,-223.21 96,-223.21"/>
<polygon fill="#1f3a93" stroke="#1f3a93" points="98.45,-223.21 96,-216.21 93.55,-223.21 98.45,-223.21"/>
</g>
<!-- pgr -->
<g id="node7" class="node">
<title>pgr</title>
<path fill="white" stroke="#1f3a93" stroke-width="1.2" d="M189,-122.73C189,-124.53 164.35,-126 134,-126 103.65,-126 79,-124.53 79,-122.73 79,-122.73 79,-93.27 79,-93.27 79,-91.47 103.65,-90 134,-90 164.35,-90 189,-91.47 189,-93.27 189,-93.27 189,-122.73 189,-122.73"/>
<path fill="none" stroke="#1f3a93" stroke-width="1.2" d="M189,-122.73C189,-120.92 164.35,-119.45 134,-119.45 103.65,-119.45 79,-120.92 79,-122.73"/>
<text text-anchor="middle" x="134" y="-105.5" font-family="DejaVu Sans" font-size="10.00" fill="#1a1d24">Réplique / lecture</text>
</g>
<!-- pgp&#45;&gt;pgr -->
<g id="edge6" class="edge">
<title>pgp&#45;&gt;pgr</title>
<path fill="none" stroke="#1f3a93" d="M134,-179.79C134,-179.79 134,-133.19 134,-133.19"/>
<polygon fill="#1f3a93" stroke="#1f3a93" points="136.45,-133.19 134,-126.19 131.55,-133.19 136.45,-133.19"/>
</g>
<!-- backup -->
<g id="node12" class="node">
<title>backup</title>
<polygon fill="white" stroke="#e30613" stroke-width="1.2" points="410.5,-126 407.5,-130 386.5,-130 383.5,-126 277.5,-126 277.5,-90 410.5,-90 410.5,-126"/>
<text text-anchor="middle" x="344" y="-111" font-family="DejaVu Sans" font-size="10.00" fill="#1a1d24">Sauvegardes chiffrées</text>
<text text-anchor="middle" x="344" y="-100" font-family="DejaVu Sans" font-size="10.00" fill="#1a1d24">WAL / PITR</text>
</g>
<!-- pgp&#45;&gt;backup -->
<g id="edge11" class="edge">
<title>pgp&#45;&gt;backup</title>
<path fill="none" stroke="#1f3a93" d="M192.5,-181.07C192.5,-155 192.5,-108 192.5,-108 192.5,-108 270.11,-108 270.11,-108"/>
<polygon fill="#1f3a93" stroke="#1f3a93" points="270.11,-110.45 277.11,-108 270.11,-105.55 270.11,-110.45"/>
</g>
<!-- s3&#45;&gt;backup -->
<g id="edge12" class="edge">
<title>s3&#45;&gt;backup</title>
<path fill="none" stroke="#1f3a93" d="M365,-179.79C365,-179.79 365,-133.19 365,-133.19"/>
<polygon fill="#1f3a93" stroke="#1f3a93" points="367.45,-133.19 365,-126.19 362.55,-133.19 367.45,-133.19"/>
</g>
<!-- dr -->
<g id="node13" class="node">
<title>dr</title>
<path fill="white" stroke="#1f3a93" stroke-width="1.2" d="M365,-36C365,-36 323,-36 323,-36 317,-36 311,-30 311,-24 311,-24 311,-12 311,-12 311,-6 317,0 323,0 323,0 365,0 365,0 371,0 377,-6 377,-12 377,-12 377,-24 377,-24 377,-30 371,-36 365,-36"/>
<text text-anchor="middle" x="344" y="-15.5" font-family="DejaVu Sans" font-size="10.00" fill="#1a1d24">Site PRA</text>
</g>
<!-- backup&#45;&gt;dr -->
<g id="edge13" class="edge">
<title>backup&#45;&gt;dr</title>
<path fill="none" stroke="#1f3a93" stroke-dasharray="5,2" d="M344,-89.79C344,-89.79 344,-43.19 344,-43.19"/>
<polygon fill="#1f3a93" stroke="#1f3a93" points="346.45,-43.19 344,-36.19 341.55,-43.19 346.45,-43.19"/>
</g>
</g>
</svg>
