<?xml version="1.0" encoding="UTF-8" standalone="no"?>
<!DOCTYPE svg PUBLIC "-//W3C//DTD SVG 1.1//EN"
 "http://www.w3.org/Graphics/SVG/1.1/DTD/svg11.dtd">
<!-- Generated by graphviz version 2.42.4 (0)
 -->
<!-- Title: G Pages: 1 -->
<svg width="1141pt" height="391pt"
 viewBox="0.00 0.00 1140.80 391.30" xmlns="http://www.w3.org/2000/svg" xmlns:xlink="http://www.w3.org/1999/xlink">
<g id="graph0" class="graph" transform="scale(1 1) rotate(0) translate(14.4 376.9)">
<title>G</title>
<polygon fill="white" stroke="transparent" points="-14.4,14.4 -14.4,-376.9 1126.4,-376.9 1126.4,14.4 -14.4,14.4"/>
<g id="clust1" class="cluster">
<title>cluster_channels</title>
<polygon fill="white" stroke="#d8dde6" points="367,-279.5 367,-354.5 823,-354.5 823,-279.5 367,-279.5"/>
<text text-anchor="middle" x="595" y="-339.3" font-family="DejaVu Sans" font-size="14.00" fill="#1f3a93">Canaux</text>
</g>
<!-- web -->
<g id="node1" class="node">
<title>web</title>
<path fill="white" stroke="#1f3a93" stroke-width="1.2" d="M802.5,-323.5C802.5,-323.5 695.5,-323.5 695.5,-323.5 689.5,-323.5 683.5,-317.5 683.5,-311.5 683.5,-311.5 683.5,-299.5 683.5,-299.5 683.5,-293.5 689.5,-287.5 695.5,-287.5 695.5,-287.5 802.5,-287.5 802.5,-287.5 808.5,-287.5 814.5,-293.5 814.5,-299.5 814.5,-299.5 814.5,-311.5 814.5,-311.5 814.5,-317.5 808.5,-323.5 802.5,-323.5"/>
<text text-anchor="middle" x="749" y="-303" font-family="DejaVu Sans" font-size="10.00" fill="#1a1d24">Portail membre / PWA</text>
</g>
<!-- api -->
<g id="node4" class="node">
<title>api</title>
<path fill="white" stroke="#e30613" stroke-width="2.2" d="M648.5,-233.5C648.5,-233.5 525.5,-233.5 525.5,-233.5 519.5,-233.5 513.5,-227.5 513.5,-221.5 513.5,-221.5 513.5,-205.5 513.5,-205.5 513.5,-199.5 519.5,-193.5 525.5,-193.5 525.5,-193.5 648.5,-193.5 648.5,-193.5 654.5,-193.5 660.5,-199.5 660.5,-205.5 660.5,-205.5 660.5,-221.5 660.5,-221.5 660.5,-227.5 654.5,-233.5 648.5,-233.5"/>
<text text-anchor="middle" x="587" y="-216.9" font-family="DejaVu Sans" font-size="12.00" fill="#1a1d24">API Spring Boot</text>
<text text-anchor="middle" x="587" y="-203.9" font-family="DejaVu Sans" font-size="12.00" fill="#1a1d24">Monolithe modulaire</text>
</g>
<!-- web&#45;&gt;api -->
<g id="edge1" class="edge">
<title>web&#45;&gt;api</title>
<path fill="none" stroke="#1f3a93" d="M683.32,-305C665.86,-305 651.75,-305 651.75,-305 651.75,-305 651.75,-240.81 651.75,-240.81"/>
<polygon fill="#1f3a93" stroke="#1f3a93" points="654.2,-240.81 651.75,-233.81 649.3,-240.81 654.2,-240.81"/>
</g>
<!-- back -->
<g id="node2" class="node">
<title>back</title>
<path fill="white" stroke="#1f3a93" stroke-width="1.2" d="M631,-323.5C631,-323.5 543,-323.5 543,-323.5 537,-323.5 531,-317.5 531,-311.5 531,-311.5 531,-299.5 531,-299.5 531,-293.5 537,-287.5 543,-287.5 543,-287.5 631,-287.5 631,-287.5 637,-287.5 643,-293.5 643,-299.5 643,-299.5 643,-311.5 643,-311.5 643,-317.5 637,-323.5 631,-323.5"/>
<text text-anchor="middle" x="587" y="-303" font-family="DejaVu Sans" font-size="10.00" fill="#1a1d24">Back&#45;office CNPM</text>
</g>
<!-- back&#45;&gt;api -->
<g id="edge2" class="edge">
<title>back&#45;&gt;api</title>
<path fill="none" stroke="#1f3a93" d="M587,-287.32C587,-287.32 587,-240.55 587,-240.55"/>
<polygon fill="#1f3a93" stroke="#1f3a93" points="589.45,-240.55 587,-233.55 584.55,-240.55 589.45,-240.55"/>
</g>
<!-- mob -->
<g id="node3" class="node">
<title>mob</title>
<path fill="white" stroke="#1f3a93" stroke-width="1.2" d="M478.5,-323.5C478.5,-323.5 387.5,-323.5 387.5,-323.5 381.5,-323.5 375.5,-317.5 375.5,-311.5 375.5,-311.5 375.5,-299.5 375.5,-299.5 375.5,-293.5 381.5,-287.5 387.5,-287.5 387.5,-287.5 478.5,-287.5 478.5,-287.5 484.5,-287.5 490.5,-293.5 490.5,-299.5 490.5,-299.5 490.5,-311.5 490.5,-311.5 490.5,-317.5 484.5,-323.5 478.5,-323.5"/>
<text text-anchor="middle" x="433" y="-303" font-family="DejaVu Sans" font-size="10.00" fill="#1a1d24">Application Flutter</text>
</g>
<!-- mob&#45;&gt;api -->
<g id="edge3" class="edge">
<title>mob&#45;&gt;api</title>
<path fill="none" stroke="#1f3a93" d="M490.53,-305C507.8,-305 522.25,-305 522.25,-305 522.25,-305 522.25,-240.81 522.25,-240.81"/>
<polygon fill="#1f3a93" stroke="#1f3a93" points="524.7,-240.81 522.25,-233.81 519.8,-240.81 524.7,-240.81"/>
</g>
<!-- iam -->
<g id="node5" class="node">
<title>iam</title>
<path fill="white" stroke="#1f3a93" stroke-width="1.2" d="M116,-132.75C116,-132.75 12,-132.75 12,-132.75 6,-132.75 0,-126.75 0,-120.75 0,-120.75 0,-108.75 0,-108.75 0,-102.75 6,-96.75 12,-96.75 12,-96.75 116,-96.75 116,-96.75 122,-96.75 128,-102.75 128,-108.75 128,-108.75 128,-120.75 128,-120.75 128,-126.75 122,-132.75 116,-132.75"/>
<text text-anchor="middle" x="64" y="-117.75" font-family="DejaVu Sans" font-size="10.00" fill="#1a1d24">Keycloak</text>
<text text-anchor="middle" x="64" y="-106.75" font-family="DejaVu Sans" font-size="10.00" fill="#1a1d24">OIDC, 2FA, WebAuthn</text>
</g>
<!-- api&#45;&gt;iam -->
<g id="edge4" class="edge">
<title>api&#45;&gt;iam</title>
<path fill="none" stroke="#1f3a93" d="M513.45,-223C369.4,-223 64,-223 64,-223 64,-223 64,-140.11 64,-140.11"/>
<polygon fill="#1f3a93" stroke="#1f3a93" points="66.45,-140.11 64,-133.11 61.55,-140.11 66.45,-140.11"/>
</g>
<!-- workflow -->
<g id="node6" class="node">
<title>workflow</title>
<path fill="white" stroke="#1f3a93" stroke-width="1.2" d="M243.5,-132.75C243.5,-132.75 180.5,-132.75 180.5,-132.75 174.5,-132.75 168.5,-126.75 168.5,-120.75 168.5,-120.75 168.5,-108.75 168.5,-108.75 168.5,-102.75 174.5,-96.75 180.5,-96.75 180.5,-96.75 243.5,-96.75 243.5,-96.75 249.5,-96.75 255.5,-102.75 255.5,-108.75 255.5,-108.75 255.5,-120.75 255.5,-120.75 255.5,-126.75 249.5,-132.75 243.5,-132.75"/>
<text text-anchor="middle" x="212" y="-117.75" font-family="DejaVu Sans" font-size="10.00" fill="#1a1d24">Flowable</text>
<text text-anchor="middle" x="212" y="-106.75" font-family="DejaVu Sans" font-size="10.00" fill="#1a1d24">BPMN / DMN</text>
</g>
<!-- api&#45;&gt;workflow -->
<g id="edge5" class="edge">
<title>api&#45;&gt;workflow</title>
<path fill="none" stroke="#1f3a93" d="M513.36,-213C404.15,-213 212,-213 212,-213 212,-213 212,-139.77 212,-139.77"/>
<polygon fill="#1f3a93" stroke="#1f3a93" points="214.45,-139.77 212,-132.77 209.55,-139.77 214.45,-139.77"/>
</g>
<!-- db -->
<g id="node7" class="node">
<title>db</title>
<path fill="white" stroke="#1f3a93" stroke-width="1.2" d="M400,-134.8C400,-137.26 376.69,-139.25 348,-139.25 319.31,-139.25 296,-137.26 296,-134.8 296,-134.8 296,-94.7 296,-94.7 296,-92.24 319.31,-90.25 348,-90.25 376.69,-90.25 400,-92.24 400,-94.7 400,-94.7 400,-134.8 400,-134.8"/>
<path fill="none" stroke="#1f3a93" stroke-width="1.2" d="M400,-134.8C400,-132.34 376.69,-130.34 348,-130.34 319.31,-130.34 296,-132.34 296,-134.8"/>
<text text-anchor="middle" x="348" y="-117.75" font-family="DejaVu Sans" font-size="10.00" fill="#1a1d24">PostgreSQL 18</text>
<text text-anchor="middle" x="348" y="-106.75" font-family="DejaVu Sans" font-size="10.00" fill="#1a1d24">Source de vérité</text>
</g>
<!-- api&#45;&gt;db -->
<g id="edge6" class="edge">
<title>api&#45;&gt;db</title>
<path fill="none" stroke="#1f3a93" d="M513.37,-203C456.61,-203 387.75,-203 387.75,-203 387.75,-203 387.75,-145.4 387.75,-145.4"/>
<polygon fill="#1f3a93" stroke="#1f3a93" points="390.2,-145.4 387.75,-138.4 385.3,-145.4 390.2,-145.4"/>
</g>
<!-- mq -->
<g id="node8" class="node">
<title>mq</title>
<path fill="white" stroke="#1f3a93" stroke-width="1.2" d="M561.5,-132.75C561.5,-132.75 452.5,-132.75 452.5,-132.75 446.5,-132.75 440.5,-126.75 440.5,-120.75 440.5,-120.75 440.5,-108.75 440.5,-108.75 440.5,-102.75 446.5,-96.75 452.5,-96.75 452.5,-96.75 561.5,-96.75 561.5,-96.75 567.5,-96.75 573.5,-102.75 573.5,-108.75 573.5,-108.75 573.5,-120.75 573.5,-120.75 573.5,-126.75 567.5,-132.75 561.5,-132.75"/>
<text text-anchor="middle" x="507" y="-117.75" font-family="DejaVu Sans" font-size="10.00" fill="#1a1d24">RabbitMQ</text>
<text text-anchor="middle" x="507" y="-106.75" font-family="DejaVu Sans" font-size="10.00" fill="#1a1d24">Événements / reprises</text>
</g>
<!-- api&#45;&gt;mq -->
<g id="edge7" class="edge">
<title>api&#45;&gt;mq</title>
<path fill="none" stroke="#1f3a93" d="M543.5,-193.04C543.5,-193.04 543.5,-139.86 543.5,-139.86"/>
<polygon fill="#1f3a93" stroke="#1f3a93" points="545.95,-139.86 543.5,-132.86 541.05,-139.86 545.95,-139.86"/>
</g>
<!-- cache -->
<g id="node9" class="node">
<title>cache</title>
<path fill="white" stroke="#1f3a93" stroke-width="1.2" d="M708,-132.75C708,-132.75 626,-132.75 626,-132.75 620,-132.75 614,-126.75 614,-120.75 614,-120.75 614,-108.75 614,-108.75 614,-102.75 620,-96.75 626,-96.75 626,-96.75 708,-96.75 708,-96.75 714,-96.75 720,-102.75 720,-108.75 720,-108.75 720,-120.75 720,-120.75 720,-126.75 714,-132.75 708,-132.75"/>
<text text-anchor="middle" x="667" y="-117.75" font-family="DejaVu Sans" font-size="10.00" fill="#1a1d24">Valkey</text>
<text text-anchor="middle" x="667" y="-106.75" font-family="DejaVu Sans" font-size="10.00" fill="#1a1d24">Cache technique</text>
</g>
<!-- api&#45;&gt;cache -->
<g id="edge8" class="edge">
<title>api&#45;&gt;cache</title>
<path fill="none" stroke="#1f3a93" d="M637.25,-193.04C637.25,-193.04 637.25,-139.86 637.25,-139.86"/>
<polygon fill="#1f3a93" stroke="#1f3a93" points="639.7,-139.86 637.25,-132.86 634.8,-139.86 639.7,-139.86"/>
</g>
<!-- obj -->
<g id="node10" class="node">
<title>obj</title>
<polygon fill="white" stroke="#1f3a93" stroke-width="1.2" points="875.5,-132.75 872.5,-136.75 851.5,-136.75 848.5,-132.75 760.5,-132.75 760.5,-96.75 875.5,-96.75 875.5,-132.75"/>
<text text-anchor="middle" x="818" y="-117.75" font-family="DejaVu Sans" font-size="10.00" fill="#1a1d24">Stockage objet S3</text>
<text text-anchor="middle" x="818" y="-106.75" font-family="DejaVu Sans" font-size="10.00" fill="#1a1d24">Documents / reçus</text>
</g>
<!-- api&#45;&gt;obj -->
<g id="edge9" class="edge">
<title>api&#45;&gt;obj</title>
<path fill="none" stroke="#1f3a93" d="M660.52,-206C717.74,-206 787.5,-206 787.5,-206 787.5,-206 787.5,-139.78 787.5,-139.78"/>
<polygon fill="#1f3a93" stroke="#1f3a93" points="789.95,-139.78 787.5,-132.78 785.05,-139.78 789.95,-139.78"/>
</g>
<!-- ext -->
<g id="node11" class="node">
<title>ext</title>
<path fill="white" stroke="#1f3a93" stroke-width="1.2" d="M1100,-132.75C1100,-132.75 928,-132.75 928,-132.75 922,-132.75 916,-126.75 916,-120.75 916,-120.75 916,-108.75 916,-108.75 916,-102.75 922,-96.75 928,-96.75 928,-96.75 1100,-96.75 1100,-96.75 1106,-96.75 1112,-102.75 1112,-108.75 1112,-108.75 1112,-120.75 1112,-120.75 1112,-126.75 1106,-132.75 1100,-132.75"/>
<text text-anchor="middle" x="1014" y="-117.75" font-family="DejaVu Sans" font-size="10.00" fill="#1a1d24">Adaptateurs partenaires</text>
<text text-anchor="middle" x="1014" y="-106.75" font-family="DejaVu Sans" font-size="10.00" fill="#1a1d24">Mobile Money, banques, SMS, INPS</text>
</g>
<!-- api&#45;&gt;ext -->
<g id="edge10" class="edge">
<title>api&#45;&gt;ext</title>
<path fill="none" stroke="#1f3a93" d="M660.89,-220C783.1,-220 1014,-220 1014,-220 1014,-220 1014,-140.08 1014,-140.08"/>
<polygon fill="#1f3a93" stroke="#1f3a93" points="1016.45,-140.08 1014,-133.08 1011.55,-140.08 1016.45,-140.08"/>
</g>
<!-- obs -->
<g id="node12" class="node">
<title>obs</title>
<path fill="white" stroke="#1f3a93" stroke-width="1.2" d="M563,-36C563,-36 451,-36 451,-36 445,-36 439,-30 439,-24 439,-24 439,-12 439,-12 439,-6 445,0 451,0 451,0 563,0 563,0 569,0 575,-6 575,-12 575,-12 575,-24 575,-24 575,-30 569,-36 563,-36"/>
<text text-anchor="middle" x="507" y="-21" font-family="DejaVu Sans" font-size="10.00" fill="#1a1d24">OpenTelemetry</text>
<text text-anchor="middle" x="507" y="-10" font-family="DejaVu Sans" font-size="10.00" fill="#1a1d24">Métriques, logs, traces</text>
</g>
<!-- api&#45;&gt;obs -->
<g id="edge11" class="edge">
<title>api&#45;&gt;obs</title>
<path fill="none" stroke="#1f3a93" stroke-dasharray="5,2" d="M594.5,-193.31C594.5,-143.36 594.5,-18 594.5,-18 594.5,-18 582.08,-18 582.08,-18"/>
<polygon fill="#1f3a93" stroke="#1f3a93" points="582.08,-15.55 575.08,-18 582.08,-20.45 582.08,-15.55"/>
</g>
<!-- db&#45;&gt;obs -->
<g id="edge13" class="edge">
<title>db&#45;&gt;obs</title>
<path fill="none" stroke="#1f3a93" stroke-dasharray="5,2" d="M348,-90.09C348,-61.42 348,-18 348,-18 348,-18 431.65,-18 431.65,-18"/>
<polygon fill="#1f3a93" stroke="#1f3a93" points="431.65,-20.45 438.65,-18 431.65,-15.55 431.65,-20.45"/>
</g>
<!-- mq&#45;&gt;obs -->
<g id="edge12" class="edge">
<title>mq&#45;&gt;obs</title>
<path fill="none" stroke="#1f3a93" stroke-dasharray="5,2" d="M507,-96.55C507,-96.55 507,-43.12 507,-43.12"/>
<polygon fill="#1f3a93" stroke="#1f3a93" points="509.45,-43.12 507,-36.12 504.55,-43.12 509.45,-43.12"/>
</g>
</g>
</svg>
