<?xml version="1.0" encoding="UTF-8" standalone="no"?>
<!DOCTYPE svg PUBLIC "-//W3C//DTD SVG 1.1//EN"
 "http://www.w3.org/Graphics/SVG/1.1/DTD/svg11.dtd">
<!-- Generated by graphviz version 2.42.4 (0)
 -->
<!-- Title: G Pages: 1 -->
<svg width="1626pt" height="126pt"
 viewBox="0.00 0.00 1626.29 125.80" xmlns="http://www.w3.org/2000/svg" xmlns:xlink="http://www.w3.org/1999/xlink">
<g id="graph0" class="graph" transform="scale(1 1) rotate(0) translate(14.4 111.4)">
<title>G</title>
<polygon fill="white" stroke="transparent" points="-14.4,14.4 -14.4,-111.4 1611.89,-111.4 1611.89,14.4 -14.4,14.4"/>
<!-- start -->
<g id="node1" class="node">
<title>start</title>
<ellipse fill="#e30613" stroke="#e30613" stroke-width="1.2" cx="6.5" cy="-33" rx="6.5" ry="6.5"/>
</g>
<!-- ref -->
<g id="node2" class="node">
<title>ref</title>
<path fill="white" stroke="#1f3a93" stroke-width="1.2" d="M195,-51C195,-51 80,-51 80,-51 74,-51 68,-45 68,-39 68,-39 68,-27 68,-27 68,-21 74,-15 80,-15 80,-15 195,-15 195,-15 201,-15 207,-21 207,-27 207,-27 207,-39 207,-39 207,-45 201,-51 195,-51"/>
<text text-anchor="middle" x="137.5" y="-36" font-family="DejaVu Sans" font-size="10.00" fill="#1a1d24">Référence de paiement</text>
<text text-anchor="middle" x="137.5" y="-25" font-family="DejaVu Sans" font-size="10.00" fill="#1a1d24">validée par le CNPM</text>
</g>
<!-- start&#45;&gt;ref -->
<g id="edge1" class="edge">
<title>start&#45;&gt;ref</title>
<path fill="none" stroke="#1f3a93" d="M13.18,-33C13.18,-33 60.88,-33 60.88,-33"/>
<polygon fill="#1f3a93" stroke="#1f3a93" points="60.88,-35.45 67.88,-33 60.88,-30.55 60.88,-35.45"/>
</g>
<!-- pay -->
<g id="node3" class="node">
<title>pay</title>
<path fill="white" stroke="#1f3a93" stroke-width="1.2" d="M365,-51C365,-51 274,-51 274,-51 268,-51 262,-45 262,-39 262,-39 262,-27 262,-27 262,-21 268,-15 274,-15 274,-15 365,-15 365,-15 371,-15 377,-21 377,-27 377,-27 377,-39 377,-39 377,-45 371,-51 365,-51"/>
<text text-anchor="middle" x="319.5" y="-30.5" font-family="DejaVu Sans" font-size="10.00" fill="#1a1d24">Paiement membre</text>
</g>
<!-- ref&#45;&gt;pay -->
<g id="edge2" class="edge">
<title>ref&#45;&gt;pay</title>
<path fill="none" stroke="#1f3a93" d="M207.09,-33C207.09,-33 254.78,-33 254.78,-33"/>
<polygon fill="#1f3a93" stroke="#1f3a93" points="254.78,-35.45 261.78,-33 254.78,-30.55 254.78,-35.45"/>
</g>
<!-- callback -->
<g id="node4" class="node">
<title>callback</title>
<path fill="white" stroke="#1f3a93" stroke-width="1.2" d="M535,-51C535,-51 444,-51 444,-51 438,-51 432,-45 432,-39 432,-39 432,-27 432,-27 432,-21 438,-15 444,-15 444,-15 535,-15 535,-15 541,-15 547,-21 547,-27 547,-27 547,-39 547,-39 547,-45 541,-51 535,-51"/>
<text text-anchor="middle" x="489.5" y="-36" font-family="DejaVu Sans" font-size="10.00" fill="#1a1d24">Callback signé</text>
<text text-anchor="middle" x="489.5" y="-25" font-family="DejaVu Sans" font-size="10.00" fill="#1a1d24">ou relevé bancaire</text>
</g>
<!-- pay&#45;&gt;callback -->
<g id="edge3" class="edge">
<title>pay&#45;&gt;callback</title>
<path fill="none" stroke="#1f3a93" d="M377.05,-33C377.05,-33 424.72,-33 424.72,-33"/>
<polygon fill="#1f3a93" stroke="#1f3a93" points="424.72,-35.45 431.72,-33 424.72,-30.55 424.72,-35.45"/>
</g>
<!-- idem -->
<g id="node5" class="node">
<title>idem</title>
<path fill="white" stroke="#1f3a93" stroke-width="1.2" d="M660.66,-57.41C660.66,-57.41 612.84,-37.59 612.84,-37.59 607.3,-35.3 607.3,-30.7 612.84,-28.41 612.84,-28.41 660.66,-8.59 660.66,-8.59 666.2,-6.3 677.29,-6.3 682.83,-8.59 682.83,-8.59 730.65,-28.41 730.65,-28.41 736.19,-30.7 736.19,-35.3 730.65,-37.59 730.65,-37.59 682.83,-57.41 682.83,-57.41 677.29,-59.7 666.2,-59.7 660.66,-57.41"/>
<text text-anchor="middle" x="671.74" y="-30.5" font-family="DejaVu Sans" font-size="10.00" fill="#1a1d24">Idempotent ?</text>
</g>
<!-- callback&#45;&gt;idem -->
<g id="edge4" class="edge">
<title>callback&#45;&gt;idem</title>
<path fill="none" stroke="#1f3a93" d="M547.16,-33C547.16,-33 594.67,-33 594.67,-33"/>
<polygon fill="#1f3a93" stroke="#1f3a93" points="594.67,-35.45 601.67,-33 594.67,-30.55 594.67,-35.45"/>
</g>
<!-- reconcile -->
<g id="node6" class="node">
<title>reconcile</title>
<path fill="white" stroke="#1f3a93" stroke-width="1.2" d="M975.49,-97C975.49,-97 866.49,-97 866.49,-97 860.49,-97 854.49,-91 854.49,-85 854.49,-85 854.49,-73 854.49,-73 854.49,-67 860.49,-61 866.49,-61 866.49,-61 975.49,-61 975.49,-61 981.49,-61 987.49,-67 987.49,-73 987.49,-73 987.49,-85 987.49,-85 987.49,-91 981.49,-97 975.49,-97"/>
<text text-anchor="middle" x="920.99" y="-82" font-family="DejaVu Sans" font-size="10.00" fill="#1a1d24">Rapprochement</text>
<text text-anchor="middle" x="920.99" y="-71" font-family="DejaVu Sans" font-size="10.00" fill="#1a1d24">automatique / manuel</text>
</g>
<!-- idem&#45;&gt;reconcile -->
<g id="edge5" class="edge">
<title>idem&#45;&gt;reconcile</title>
<path fill="none" stroke="#1f3a93" d="M698.47,-51C762.9,-51 921.49,-51 921.49,-51 921.49,-51 921.49,-53.79 921.49,-53.79"/>
<polygon fill="#1f3a93" stroke="#1f3a93" points="919.04,-53.79 921.49,-60.79 923.94,-53.79 919.04,-53.79"/>
<text text-anchor="middle" x="797.99" y="-74.2" font-family="DejaVu Sans" font-size="8.50" fill="#1a1d24">oui / nouveau</text>
</g>
<!-- audit -->
<g id="node9" class="node">
<title>audit</title>
<path fill="white" stroke="#1f3a93" stroke-width="1.2" d="M1509.49,-41C1509.49,-41 1414.49,-41 1414.49,-41 1408.49,-41 1402.49,-35 1402.49,-29 1402.49,-29 1402.49,-17 1402.49,-17 1402.49,-11 1408.49,-5 1414.49,-5 1414.49,-5 1509.49,-5 1509.49,-5 1515.49,-5 1521.49,-11 1521.49,-17 1521.49,-17 1521.49,-29 1521.49,-29 1521.49,-35 1515.49,-41 1509.49,-41"/>
<text text-anchor="middle" x="1461.99" y="-20.5" font-family="DejaVu Sans" font-size="10.00" fill="#1a1d24">Audit + notification</text>
</g>
<!-- idem&#45;&gt;audit -->
<g id="edge6" class="edge">
<title>idem&#45;&gt;audit</title>
<path fill="none" stroke="#1f3a93" stroke-dasharray="5,2" d="M717.65,-23C717.65,-23 1395.33,-23 1395.33,-23"/>
<polygon fill="#1f3a93" stroke="#1f3a93" points="1395.33,-25.45 1402.33,-23 1395.33,-20.55 1395.33,-25.45"/>
<text text-anchor="middle" x="1102.49" y="-2.2" font-family="DejaVu Sans" font-size="8.50" fill="#1a1d24">doublon</text>
</g>
<!-- confirm -->
<g id="node7" class="node">
<title>confirm</title>
<path fill="white" stroke="#e30613" stroke-width="2" d="M1150.49,-97C1150.49,-97 1054.49,-97 1054.49,-97 1048.49,-97 1042.49,-91 1042.49,-85 1042.49,-85 1042.49,-73 1042.49,-73 1042.49,-67 1048.49,-61 1054.49,-61 1054.49,-61 1150.49,-61 1150.49,-61 1156.49,-61 1162.49,-67 1162.49,-73 1162.49,-73 1162.49,-85 1162.49,-85 1162.49,-91 1156.49,-97 1150.49,-97"/>
<text text-anchor="middle" x="1102.49" y="-76.5" font-family="DejaVu Sans" font-size="10.00" fill="#1a1d24">Confirmation CNPM</text>
</g>
<!-- reconcile&#45;&gt;confirm -->
<g id="edge7" class="edge">
<title>reconcile&#45;&gt;confirm</title>
<path fill="none" stroke="#1f3a93" d="M987.54,-79C987.54,-79 1035.25,-79 1035.25,-79"/>
<polygon fill="#1f3a93" stroke="#1f3a93" points="1035.25,-81.45 1042.25,-79 1035.25,-76.55 1035.25,-81.45"/>
</g>
<!-- receipt -->
<g id="node8" class="node">
<title>receipt</title>
<path fill="white" stroke="#1f3a93" stroke-width="1.2" d="M1335.49,-97C1335.49,-97 1229.49,-97 1229.49,-97 1223.49,-97 1217.49,-91 1217.49,-85 1217.49,-85 1217.49,-73 1217.49,-73 1217.49,-67 1223.49,-61 1229.49,-61 1229.49,-61 1335.49,-61 1335.49,-61 1341.49,-61 1347.49,-67 1347.49,-73 1347.49,-73 1347.49,-85 1347.49,-85 1347.49,-91 1341.49,-97 1335.49,-97"/>
<text text-anchor="middle" x="1282.49" y="-76.5" font-family="DejaVu Sans" font-size="10.00" fill="#1a1d24">Reçu officiel PDF / QR</text>
</g>
<!-- confirm&#45;&gt;receipt -->
<g id="edge8" class="edge">
<title>confirm&#45;&gt;receipt</title>
<path fill="none" stroke="#1f3a93" d="M1162.68,-79C1162.68,-79 1210.41,-79 1210.41,-79"/>
<polygon fill="#1f3a93" stroke="#1f3a93" points="1210.41,-81.45 1217.41,-79 1210.41,-76.55 1210.41,-81.45"/>
</g>
<!-- receipt&#45;&gt;audit -->
<g id="edge9" class="edge">
<title>receipt&#45;&gt;audit</title>
<path fill="none" stroke="#1f3a93" d="M1347.73,-79C1399.24,-79 1462.49,-79 1462.49,-79 1462.49,-79 1462.49,-48.03 1462.49,-48.03"/>
<polygon fill="#1f3a93" stroke="#1f3a93" points="1464.94,-48.03 1462.49,-41.03 1460.04,-48.03 1464.94,-48.03"/>
</g>
<!-- end -->
<g id="node10" class="node">
<title>end</title>
<ellipse fill="white" stroke="#1f3a93" stroke-width="1.2" cx="1586.99" cy="-23" rx="6.5" ry="6.5"/>
<ellipse fill="none" stroke="#1f3a93" stroke-width="1.2" cx="1586.99" cy="-23" rx="10.5" ry="10.5"/>
</g>
<!-- audit&#45;&gt;end -->
<g id="edge10" class="edge">
<title>audit&#45;&gt;end</title>
<path fill="none" stroke="#1f3a93" d="M1521.56,-23C1521.56,-23 1569.15,-23 1569.15,-23"/>
<polygon fill="#1f3a93" stroke="#1f3a93" points="1569.15,-25.45 1576.15,-23 1569.15,-20.55 1569.15,-25.45"/>
</g>
</g>
</svg>
