<?xml version="1.0" encoding="UTF-8" standalone="no"?>
<!DOCTYPE svg PUBLIC "-//W3C//DTD SVG 1.1//EN"
 "http://www.w3.org/Graphics/SVG/1.1/DTD/svg11.dtd">
<!-- Generated by graphviz version 2.42.4 (0)
 -->
<!-- Title: G Pages: 1 -->
<svg width="240pt" height="515pt"
 viewBox="0.00 0.00 239.80 514.80" xmlns="http://www.w3.org/2000/svg" xmlns:xlink="http://www.w3.org/1999/xlink">
<g id="graph0" class="graph" transform="scale(1 1) rotate(0) translate(14.4 500.4)">
<title>G</title>
<polygon fill="white" stroke="transparent" points="-14.4,14.4 -14.4,-500.4 225.4,-500.4 225.4,14.4 -14.4,14.4"/>
<!-- identity -->
<g id="node1" class="node">
<title>identity</title>
<path fill="white" stroke="#1f3a93" stroke-width="1.2" d="M180.5,-486C180.5,-486 30.5,-486 30.5,-486 24.5,-486 18.5,-480 18.5,-474 18.5,-474 18.5,-462 18.5,-462 18.5,-456 24.5,-450 30.5,-450 30.5,-450 180.5,-450 180.5,-450 186.5,-450 192.5,-456 192.5,-462 192.5,-462 192.5,-474 192.5,-474 192.5,-480 186.5,-486 180.5,-486"/>
<text text-anchor="middle" x="105.5" y="-471" font-family="DejaVu Sans" font-size="10.00" fill="#1a1d24">Identité</text>
<text text-anchor="middle" x="105.5" y="-460" font-family="DejaVu Sans" font-size="10.00" fill="#1a1d24">Keycloak, OIDC, 2FA, passkeys</text>
</g>
<!-- authz -->
<g id="node2" class="node">
<title>authz</title>
<path fill="white" stroke="#1f3a93" stroke-width="1.2" d="M196.5,-396C196.5,-396 14.5,-396 14.5,-396 8.5,-396 2.5,-390 2.5,-384 2.5,-384 2.5,-372 2.5,-372 2.5,-366 8.5,-360 14.5,-360 14.5,-360 196.5,-360 196.5,-360 202.5,-360 208.5,-366 208.5,-372 208.5,-372 208.5,-384 208.5,-384 208.5,-390 202.5,-396 196.5,-396"/>
<text text-anchor="middle" x="105.5" y="-381" font-family="DejaVu Sans" font-size="10.00" fill="#1a1d24">Autorisation</text>
<text text-anchor="middle" x="105.5" y="-370" font-family="DejaVu Sans" font-size="10.00" fill="#1a1d24">RBAC + périmètre + refus par défaut</text>
</g>
<!-- identity&#45;&gt;authz -->
<g id="edge1" class="edge">
<title>identity&#45;&gt;authz</title>
<path fill="none" stroke="#1f3a93" d="M105.5,-449.79C105.5,-449.79 105.5,-403.19 105.5,-403.19"/>
<polygon fill="#1f3a93" stroke="#1f3a93" points="107.95,-403.19 105.5,-396.19 103.05,-403.19 107.95,-403.19"/>
</g>
<!-- app -->
<g id="node3" class="node">
<title>app</title>
<path fill="white" stroke="#1f3a93" stroke-width="1.2" d="M191.5,-306C191.5,-306 19.5,-306 19.5,-306 13.5,-306 7.5,-300 7.5,-294 7.5,-294 7.5,-282 7.5,-282 7.5,-276 13.5,-270 19.5,-270 19.5,-270 191.5,-270 191.5,-270 197.5,-270 203.5,-276 203.5,-282 203.5,-282 203.5,-294 203.5,-294 203.5,-300 197.5,-306 191.5,-306"/>
<text text-anchor="middle" x="105.5" y="-291" font-family="DejaVu Sans" font-size="10.00" fill="#1a1d24">Sécurité applicative</text>
<text text-anchor="middle" x="105.5" y="-280" font-family="DejaVu Sans" font-size="10.00" fill="#1a1d24">validation, CSP, fichiers, rate limits</text>
</g>
<!-- authz&#45;&gt;app -->
<g id="edge2" class="edge">
<title>authz&#45;&gt;app</title>
<path fill="none" stroke="#1f3a93" d="M105.5,-359.79C105.5,-359.79 105.5,-313.19 105.5,-313.19"/>
<polygon fill="#1f3a93" stroke="#1f3a93" points="107.95,-313.19 105.5,-306.19 103.05,-313.19 107.95,-313.19"/>
</g>
<!-- data -->
<g id="node4" class="node">
<title>data</title>
<path fill="white" stroke="#1f3a93" stroke-width="1.2" d="M199,-216C199,-216 12,-216 12,-216 6,-216 0,-210 0,-204 0,-204 0,-192 0,-192 0,-186 6,-180 12,-180 12,-180 199,-180 199,-180 205,-180 211,-186 211,-192 211,-192 211,-204 211,-204 211,-210 205,-216 199,-216"/>
<text text-anchor="middle" x="105.5" y="-201" font-family="DejaVu Sans" font-size="10.00" fill="#1a1d24">Protection des données</text>
<text text-anchor="middle" x="105.5" y="-190" font-family="DejaVu Sans" font-size="10.00" fill="#1a1d24">TLS, chiffrement, masquage, rétention</text>
</g>
<!-- app&#45;&gt;data -->
<g id="edge3" class="edge">
<title>app&#45;&gt;data</title>
<path fill="none" stroke="#1f3a93" d="M105.5,-269.79C105.5,-269.79 105.5,-223.19 105.5,-223.19"/>
<polygon fill="#1f3a93" stroke="#1f3a93" points="107.95,-223.19 105.5,-216.19 103.05,-223.19 107.95,-223.19"/>
</g>
<!-- audit -->
<g id="node5" class="node">
<title>audit</title>
<path fill="white" stroke="#1f3a93" stroke-width="1.2" d="M198,-126C198,-126 13,-126 13,-126 7,-126 1,-120 1,-114 1,-114 1,-102 1,-102 1,-96 7,-90 13,-90 13,-90 198,-90 198,-90 204,-90 210,-96 210,-102 210,-102 210,-114 210,-114 210,-120 204,-126 198,-126"/>
<text text-anchor="middle" x="105.5" y="-111" font-family="DejaVu Sans" font-size="10.00" fill="#1a1d24">Audit et détection</text>
<text text-anchor="middle" x="105.5" y="-100" font-family="DejaVu Sans" font-size="10.00" fill="#1a1d24">journal immuable, alertes, corrélation</text>
</g>
<!-- data&#45;&gt;audit -->
<g id="edge4" class="edge">
<title>data&#45;&gt;audit</title>
<path fill="none" stroke="#1f3a93" d="M105.5,-179.79C105.5,-179.79 105.5,-133.19 105.5,-133.19"/>
<polygon fill="#1f3a93" stroke="#1f3a93" points="107.95,-133.19 105.5,-126.19 103.05,-133.19 107.95,-133.19"/>
</g>
<!-- ops -->
<g id="node6" class="node">
<title>ops</title>
<path fill="white" stroke="#1f3a93" stroke-width="1.2" d="M185.5,-36C185.5,-36 25.5,-36 25.5,-36 19.5,-36 13.5,-30 13.5,-24 13.5,-24 13.5,-12 13.5,-12 13.5,-6 19.5,0 25.5,0 25.5,0 185.5,0 185.5,0 191.5,0 197.5,-6 197.5,-12 197.5,-12 197.5,-24 197.5,-24 197.5,-30 191.5,-36 185.5,-36"/>
<text text-anchor="middle" x="105.5" y="-21" font-family="DejaVu Sans" font-size="10.00" fill="#1a1d24">DevSecOps</text>
<text text-anchor="middle" x="105.5" y="-10" font-family="DejaVu Sans" font-size="10.00" fill="#1a1d24">SAST, SCA, secrets, SBOM, DAST</text>
</g>
<!-- audit&#45;&gt;ops -->
<g id="edge5" class="edge">
<title>audit&#45;&gt;ops</title>
<path fill="none" stroke="#1f3a93" d="M105.5,-89.79C105.5,-89.79 105.5,-43.19 105.5,-43.19"/>
<polygon fill="#1f3a93" stroke="#1f3a93" points="107.95,-43.19 105.5,-36.19 103.05,-43.19 107.95,-43.19"/>
</g>
</g>
</svg>
