<?xml version="1.0" encoding="UTF-8" standalone="no"?>
<!DOCTYPE svg PUBLIC "-//W3C//DTD SVG 1.1//EN"
 "http://www.w3.org/Graphics/SVG/1.1/DTD/svg11.dtd">
<!-- Generated by graphviz version 2.42.4 (0)
 -->
<!-- Title: G Pages: 1 -->
<svg width="820pt" height="293pt"
 viewBox="0.00 0.00 819.80 292.80" xmlns="http://www.w3.org/2000/svg" xmlns:xlink="http://www.w3.org/1999/xlink">
<g id="graph0" class="graph" transform="scale(1 1) rotate(0) translate(14.4 278.4)">
<title>G</title>
<polygon fill="white" stroke="transparent" points="-14.4,14.4 -14.4,-278.4 805.4,-278.4 805.4,14.4 -14.4,14.4"/>
<!-- cnpm -->
<g id="node1" class="node">
<title>cnpm</title>
<path fill="white" stroke="#e30613" stroke-width="2.2" d="M477,-150C477,-150 308,-150 308,-150 302,-150 296,-144 296,-138 296,-138 296,-126 296,-126 296,-120 302,-114 308,-114 308,-114 477,-114 477,-114 483,-114 489,-120 489,-126 489,-126 489,-138 489,-138 489,-144 483,-150 477,-150"/>
<text text-anchor="middle" x="392.5" y="-128.6" font-family="DejaVu Sans" font-size="13.00" fill="#1a1d24">Plateforme digitale CNPM</text>
</g>
<!-- mobile -->
<g id="node6" class="node">
<title>mobile</title>
<path fill="white" stroke="#1f3a93" stroke-width="1.2" d="M772,-264C772,-264 645,-264 645,-264 639,-264 633,-258 633,-252 633,-252 633,-240 633,-240 633,-234 639,-228 645,-228 645,-228 772,-228 772,-228 778,-228 784,-234 784,-240 784,-240 784,-252 784,-252 784,-258 778,-264 772,-264"/>
<text text-anchor="middle" x="708.5" y="-243.5" font-family="DejaVu Sans" font-size="10.00" fill="#1a1d24">Opérateurs Mobile Money</text>
</g>
<!-- cnpm&#45;&gt;mobile -->
<g id="edge5" class="edge">
<title>cnpm&#45;&gt;mobile</title>
<path fill="none" stroke="#1f3a93" d="M489.02,-142.8C559.94,-142.8 644,-142.8 644,-142.8 644,-142.8 644,-220.55 644,-220.55"/>
<polygon fill="#1f3a93" stroke="#1f3a93" points="641.55,-220.55 644,-227.55 646.45,-220.55 641.55,-220.55"/>
<text text-anchor="middle" x="557.5" y="-248.2" font-family="DejaVu Sans" font-size="8.50" fill="#1a1d24">Paiements / statuts</text>
</g>
<!-- banks -->
<g id="node7" class="node">
<title>banks</title>
<path fill="white" stroke="#1f3a93" stroke-width="1.2" d="M730,-188C730,-188 687,-188 687,-188 681,-188 675,-182 675,-176 675,-176 675,-164 675,-164 675,-158 681,-152 687,-152 687,-152 730,-152 730,-152 736,-152 742,-158 742,-164 742,-164 742,-176 742,-176 742,-182 736,-188 730,-188"/>
<text text-anchor="middle" x="708.5" y="-167.5" font-family="DejaVu Sans" font-size="10.00" fill="#1a1d24">Banques</text>
</g>
<!-- cnpm&#45;&gt;banks -->
<g id="edge6" class="edge">
<title>cnpm&#45;&gt;banks</title>
<path fill="none" stroke="#1f3a93" d="M489.18,-135.6C582.26,-135.6 709,-135.6 709,-135.6 709,-135.6 709,-144.99 709,-144.99"/>
<polygon fill="#1f3a93" stroke="#1f3a93" points="706.55,-144.99 709,-151.99 711.45,-144.99 706.55,-144.99"/>
<text text-anchor="middle" x="557.5" y="-172.2" font-family="DejaVu Sans" font-size="8.50" fill="#1a1d24">Virements / relevés</text>
</g>
<!-- msg -->
<g id="node8" class="node">
<title>msg</title>
<path fill="white" stroke="#1f3a93" stroke-width="1.2" d="M755.5,-112C755.5,-112 661.5,-112 661.5,-112 655.5,-112 649.5,-106 649.5,-100 649.5,-100 649.5,-88 649.5,-88 649.5,-82 655.5,-76 661.5,-76 661.5,-76 755.5,-76 755.5,-76 761.5,-76 767.5,-82 767.5,-88 767.5,-88 767.5,-100 767.5,-100 767.5,-106 761.5,-112 755.5,-112"/>
<text text-anchor="middle" x="708.5" y="-91.5" font-family="DejaVu Sans" font-size="10.00" fill="#1a1d24">SMS / e&#45;mail / push</text>
</g>
<!-- cnpm&#45;&gt;msg -->
<g id="edge7" class="edge">
<title>cnpm&#45;&gt;msg</title>
<path fill="none" stroke="#1f3a93" d="M489.01,-128.4C566.69,-128.4 663,-128.4 663,-128.4 663,-128.4 663,-119.01 663,-119.01"/>
<polygon fill="#1f3a93" stroke="#1f3a93" points="665.45,-119.01 663,-112.01 660.55,-119.01 665.45,-119.01"/>
<text text-anchor="middle" x="557.5" y="-96.2" font-family="DejaVu Sans" font-size="8.50" fill="#1a1d24">Notifications</text>
</g>
<!-- inps -->
<g id="node9" class="node">
<title>inps</title>
<path fill="white" stroke="#1f3a93" stroke-width="1.2" stroke-dasharray="5,2" d="M779,-36C779,-36 638,-36 638,-36 632,-36 626,-30 626,-24 626,-24 626,-12 626,-12 626,-6 632,0 638,0 638,0 779,0 779,0 785,0 791,-6 791,-12 791,-12 791,-24 791,-24 791,-30 785,-36 779,-36"/>
<text text-anchor="middle" x="708.5" y="-15.5" font-family="DejaVu Sans" font-size="10.00" fill="#1a1d24">INPS (interopérabilité future)</text>
</g>
<!-- cnpm&#45;&gt;inps -->
<g id="edge8" class="edge">
<title>cnpm&#45;&gt;inps</title>
<path fill="none" stroke="#1f3a93" stroke-dasharray="5,2" d="M489.22,-121.2C558.27,-121.2 639,-121.2 639,-121.2 639,-121.2 639,-43.45 639,-43.45"/>
<polygon fill="#1f3a93" stroke="#1f3a93" points="641.45,-43.45 639,-36.45 636.55,-43.45 641.45,-43.45"/>
<text text-anchor="middle" x="557.5" y="-20.2" font-family="DejaVu Sans" font-size="8.50" fill="#1a1d24">Contrat futur</text>
</g>
<!-- member -->
<g id="node2" class="node">
<title>member</title>
<path fill="white" stroke="#1f3a93" stroke-width="1.2" d="M141.5,-264C141.5,-264 23.5,-264 23.5,-264 17.5,-264 11.5,-258 11.5,-252 11.5,-252 11.5,-240 11.5,-240 11.5,-234 17.5,-228 23.5,-228 23.5,-228 141.5,-228 141.5,-228 147.5,-228 153.5,-234 153.5,-240 153.5,-240 153.5,-252 153.5,-252 153.5,-258 147.5,-264 141.5,-264"/>
<text text-anchor="middle" x="82.5" y="-243.5" font-family="DejaVu Sans" font-size="10.00" fill="#1a1d24">Entreprises et membres</text>
</g>
<!-- member&#45;&gt;cnpm -->
<g id="edge1" class="edge">
<title>member&#45;&gt;cnpm</title>
<path fill="none" stroke="#1f3a93" d="M153.73,-246C245.41,-246 393,-246 393,-246 393,-246 393,-157.06 393,-157.06"/>
<polygon fill="#1f3a93" stroke="#1f3a93" points="395.45,-157.06 393,-150.06 390.55,-157.06 395.45,-157.06"/>
<text text-anchor="middle" x="230.5" y="-248.2" font-family="DejaVu Sans" font-size="8.50" fill="#1a1d24">Web / mobile</text>
</g>
<!-- staff -->
<g id="node3" class="node">
<title>staff</title>
<path fill="white" stroke="#1f3a93" stroke-width="1.2" d="M148,-188C148,-188 17,-188 17,-188 11,-188 5,-182 5,-176 5,-176 5,-164 5,-164 5,-158 11,-152 17,-152 17,-152 148,-152 148,-152 154,-152 160,-158 160,-164 160,-164 160,-176 160,-176 160,-182 154,-188 148,-188"/>
<text text-anchor="middle" x="82.5" y="-167.5" font-family="DejaVu Sans" font-size="10.00" fill="#1a1d24">Directions et agents CNPM</text>
</g>
<!-- staff&#45;&gt;cnpm -->
<g id="edge2" class="edge">
<title>staff&#45;&gt;cnpm</title>
<path fill="none" stroke="#1f3a93" d="M109,-151.76C109,-144.57 109,-138 109,-138 109,-138 288.73,-138 288.73,-138"/>
<polygon fill="#1f3a93" stroke="#1f3a93" points="288.73,-140.45 295.73,-138 288.73,-135.55 288.73,-140.45"/>
<text text-anchor="middle" x="230.5" y="-172.2" font-family="DejaVu Sans" font-size="8.50" fill="#1a1d24">Back&#45;office</text>
</g>
<!-- groups -->
<g id="node4" class="node">
<title>groups</title>
<path fill="white" stroke="#1f3a93" stroke-width="1.2" d="M153,-112C153,-112 12,-112 12,-112 6,-112 0,-106 0,-100 0,-100 0,-88 0,-88 0,-82 6,-76 12,-76 12,-76 153,-76 153,-76 159,-76 165,-82 165,-88 165,-88 165,-100 165,-100 165,-106 159,-112 153,-112"/>
<text text-anchor="middle" x="82.5" y="-91.5" font-family="DejaVu Sans" font-size="10.00" fill="#1a1d24">Groupements professionnels</text>
</g>
<!-- groups&#45;&gt;cnpm -->
<g id="edge3" class="edge">
<title>groups&#45;&gt;cnpm</title>
<path fill="none" stroke="#1f3a93" d="M57,-112.24C57,-119.43 57,-126 57,-126 57,-126 288.91,-126 288.91,-126"/>
<polygon fill="#1f3a93" stroke="#1f3a93" points="288.91,-128.45 295.91,-126 288.91,-123.55 288.91,-128.45"/>
<text text-anchor="middle" x="230.5" y="-96.2" font-family="DejaVu Sans" font-size="8.50" fill="#1a1d24">Enrôlement / suivi</text>
</g>
<!-- auditors -->
<g id="node5" class="node">
<title>auditors</title>
<path fill="white" stroke="#1f3a93" stroke-width="1.2" d="M128.5,-36C128.5,-36 36.5,-36 36.5,-36 30.5,-36 24.5,-30 24.5,-24 24.5,-24 24.5,-12 24.5,-12 24.5,-6 30.5,0 36.5,0 36.5,0 128.5,0 128.5,0 134.5,0 140.5,-6 140.5,-12 140.5,-12 140.5,-24 140.5,-24 140.5,-30 134.5,-36 128.5,-36"/>
<text text-anchor="middle" x="82.5" y="-15.5" font-family="DejaVu Sans" font-size="10.00" fill="#1a1d24">Auditeurs habilités</text>
</g>
<!-- auditors&#45;&gt;cnpm -->
<g id="edge4" class="edge">
<title>auditors&#45;&gt;cnpm</title>
<path fill="none" stroke="#1f3a93" d="M140.54,-18C230.41,-18 393,-18 393,-18 393,-18 393,-106.94 393,-106.94"/>
<polygon fill="#1f3a93" stroke="#1f3a93" points="390.55,-106.94 393,-113.94 395.45,-106.94 390.55,-106.94"/>
<text text-anchor="middle" x="230.5" y="-20.2" font-family="DejaVu Sans" font-size="8.50" fill="#1a1d24">Audit contrôlé</text>
</g>
</g>
</svg>
